<svg width="58" height="58" viewBox="0 0 58 58" fill="none" xmlns="http://www.w3.org/2000/svg">
<g filter="url(#filter0_i_3_25480)">
<rect width="57.6" height="57.6" rx="20.232" fill="url(#paint0_linear_3_25480)"/>
</g>
<rect x="1.683" y="1.683" width="54.234" height="54.234" rx="18.549" stroke="url(#paint1_linear_3_25480)" stroke-width="3.366"/>
<path d="M21.3494 37.6582C18.8876 36.9548 17.0998 37.0721 16.5137 37.2186C16.5137 33.3503 17.686 29.7451 18.2721 28.426C20.7339 22.0956 29.5554 15.2377 33.6585 12.6C33.2189 20.0734 35.4169 23.5903 38.0546 26.2279C40.1647 28.3381 40.9853 31.2102 41.1319 32.3825C39.7251 31.6791 37.615 32.3825 36.7358 32.8221C36.8823 32.0894 36.6478 30.1844 34.5377 28.426C32.4276 26.6675 30.7277 22.711 30.1416 20.9526C21.7011 26.9313 20.7632 34.5808 21.3494 37.6582Z" fill="url(#paint2_linear_3_25480)"/>
<path d="M20.4712 39.4158C14.8442 37.6574 11.679 40.4416 10.7998 42.0535C13.6133 39.2398 18.7128 40.5882 20.9108 41.6141C23.8416 42.6398 30.5823 43.5483 34.0992 38.9764C37.616 34.4044 44.0637 36.7784 46.8479 38.5368C42.2759 31.1514 35.2715 34.2873 32.3407 36.7784C30.7288 38.3902 26.0983 41.1742 20.4712 39.4158Z" fill="white"/>
<path d="M20.4712 39.4158C14.8442 37.6574 11.679 40.4416 10.7998 42.0535C13.6133 39.2398 18.7128 40.5882 20.9108 41.6141C23.8416 42.6398 30.5823 43.5483 34.0992 38.9764C37.616 34.4044 44.0637 36.7784 46.8479 38.5368C42.2759 31.1514 35.2715 34.2873 32.3407 36.7784C30.7288 38.3902 26.0983 41.1742 20.4712 39.4158Z" fill="url(#paint3_linear_3_25480)"/>
<path d="M32.7808 46.4494C24.8009 49.5387 20.1786 44.6909 19.1528 42.9325C25.8349 45.394 31.4995 44.9999 34.1995 42.3C40.4995 36.0001 44.6502 38.39 46.4087 40.2948C44.2106 38.976 39.5579 39.6623 37.7995 42.2999C36.3927 44.4101 34.1995 45.9001 32.7808 46.4494Z" fill="white"/>
<path d="M32.7808 46.4494C24.8009 49.5387 20.1786 44.6909 19.1528 42.9325C25.8349 45.394 31.4995 44.9999 34.1995 42.3C40.4995 36.0001 44.6502 38.39 46.4087 40.2948C44.2106 38.976 39.5579 39.6623 37.7995 42.2999C36.3927 44.4101 34.1995 45.9001 32.7808 46.4494Z" fill="url(#paint4_linear_3_25480)"/>
<defs>
<filter id="filter0_i_3_25480" x="0" y="0" width="57.6001" height="64.8" filterUnits="userSpaceOnUse" color-interpolation-filters="sRGB">
<feFlood flood-opacity="0" result="BackgroundImageFix"/>
<feBlend mode="normal" in="SourceGraphic" in2="BackgroundImageFix" result="shape"/>
<feColorMatrix in="SourceAlpha" type="matrix" values="0 0 0 0 0 0 0 0 0 0 0 0 0 0 0 0 0 0 127 0" result="hardAlpha"/>
<feOffset dy="7.2"/>
<feGaussianBlur stdDeviation="9"/>
<feComposite in2="hardAlpha" operator="arithmetic" k2="-1" k3="1"/>
<feColorMatrix type="matrix" values="0 0 0 0 0 0 0 0 0 0 0 0 0 0 0 0 0 0 0.25 0"/>
<feBlend mode="normal" in2="shape" result="effect1_innerShadow_3_25480"/>
</filter>
<linearGradient id="paint0_linear_3_25480" x1="-0.000897004" y1="57.5996" x2="57.5993" y2="-0.000701308" gradientUnits="userSpaceOnUse">
<stop stop-color="#481267"/>
<stop offset="1" stop-color="#7B1FB0"/>
</linearGradient>
<linearGradient id="paint1_linear_3_25480" x1="28.8" y1="0" x2="28.8" y2="57.6" gradientUnits="userSpaceOnUse">
<stop stop-color="white" stop-opacity="0.12"/>
<stop offset="1" stop-color="white" stop-opacity="0.02"/>
</linearGradient>
<linearGradient id="paint2_linear_3_25480" x1="28.8228" y1="12.6" x2="28.8228" y2="37.6582" gradientUnits="userSpaceOnUse">
<stop stop-color="#F4BD50"/>
<stop offset="1" stop-color="#FFE4AF"/>
</linearGradient>
<linearGradient id="paint3_linear_3_25480" x1="28.8238" y1="33.9363" x2="28.8238" y2="42.4472" gradientUnits="userSpaceOnUse">
<stop stop-color="#F4BD50" stop-opacity="0.8"/>
<stop offset="1" stop-color="#FFE4AF" stop-opacity="0.5"/>
</linearGradient>
<linearGradient id="paint4_linear_3_25480" x1="32.7808" y1="38.306" x2="32.7808" y2="46.8001" gradientUnits="userSpaceOnUse">
<stop stop-color="#F4BD50" stop-opacity="0.8"/>
<stop offset="1" stop-color="#FFE4AF" stop-opacity="0.5"/>
</linearGradient>
</defs>
</svg>
